<svg xmlns="http://www.w3.org/2000/svg" xmlns:xlink="http://www.w3.org/1999/xlink" width="1024" zoomAndPan="magnify" viewBox="0 0 768 767.999994" height="1024" preserveAspectRatio="xMidYMid meet" version="1.0"><defs><clipPath id="id1"><path d="M 107.039062 107.039062 L 661.289062 107.039062 L 661.289062 661.289062 L 107.039062 661.289062 Z M 107.039062 107.039062 " clip-rule="nonzero"/></clipPath></defs><g clip-path="url(#id1)"><path fill="#000000" d="M 384.164062 133.429688 C 245.6875 133.429688 133.429688 245.6875 133.429688 384.164062 C 133.429688 522.636719 245.6875 634.894531 384.164062 634.894531 C 522.636719 634.894531 634.894531 522.636719 634.894531 384.164062 C 634.894531 245.6875 522.636719 133.429688 384.164062 133.429688 Z M 107.039062 384.164062 C 107.039062 231.109375 231.109375 107.039062 384.164062 107.039062 C 537.214844 107.039062 661.289062 231.109375 661.289062 384.164062 C 661.289062 537.214844 537.214844 661.289062 384.164062 661.289062 C 231.109375 661.289062 107.039062 537.214844 107.039062 384.164062 Z M 107.039062 384.164062 " fill-opacity="1" fill-rule="evenodd"/></g><path fill="#000000" d="M 191.257812 190.035156 C 196.226562 184.703125 204.578125 184.414062 209.90625 189.382812 C 321.84375 293.765625 327.964844 469.125 223.585938 581.058594 C 218.613281 586.386719 210.265625 586.679688 204.933594 581.710938 C 199.605469 576.738281 199.3125 568.386719 204.28125 563.058594 C 298.722656 461.785156 293.183594 303.125 191.90625 208.6875 C 186.578125 203.714844 186.285156 195.363281 191.257812 190.035156 Z M 191.257812 190.035156 " fill-opacity="1" fill-rule="evenodd"/><path fill="#000000" d="M 571.132812 177.636719 C 576.464844 182.605469 576.753906 190.957031 571.785156 196.289062 C 477.347656 297.5625 482.886719 456.222656 584.160156 550.660156 C 589.492188 555.632812 589.78125 563.984375 584.8125 569.3125 C 579.839844 574.644531 571.492188 574.933594 566.160156 569.964844 C 454.226562 465.582031 448.101562 290.222656 552.484375 178.289062 C 557.453125 172.957031 565.804688 172.667969 571.132812 177.636719 Z M 571.132812 177.636719 " fill-opacity="1" fill-rule="evenodd"/></svg>