<svg xmlns="http://www.w3.org/2000/svg" xmlns:xlink="http://www.w3.org/1999/xlink" width="1024" zoomAndPan="magnify" viewBox="0 0 768 767.999994" height="1024" preserveAspectRatio="xMidYMid meet" version="1.0"><defs><clipPath id="id1"><path d="M 230.398438 231.550781 L 537.898438 231.550781 L 537.898438 536.800781 L 230.398438 536.800781 Z M 230.398438 231.550781 " clip-rule="nonzero"/></clipPath></defs><g clip-path="url(#id1)"><path fill="#000000" d="M 529.4375 521.355469 L 256.65625 521.355469 C 255.957031 521.355469 255.265625 521.289062 254.578125 521.152344 C 253.890625 521.015625 253.226562 520.816406 252.582031 520.546875 C 251.933594 520.28125 251.320312 519.953125 250.742188 519.566406 C 250.160156 519.179688 249.621094 518.738281 249.128906 518.242188 C 248.632812 517.75 248.191406 517.210938 247.804688 516.628906 C 247.414062 516.046875 247.089844 515.433594 246.820312 514.789062 C 246.554688 514.140625 246.351562 513.476562 246.21875 512.789062 C 246.082031 512.105469 246.015625 511.414062 246.015625 510.714844 L 246.015625 239.191406 C 246.007812 238.691406 245.953125 238.195312 245.847656 237.707031 C 245.742188 237.214844 245.589844 236.742188 245.394531 236.28125 C 245.195312 235.820312 244.957031 235.382812 244.671875 234.972656 C 244.390625 234.558594 244.070312 234.175781 243.714844 233.824219 C 243.355469 233.472656 242.96875 233.160156 242.550781 232.882812 C 242.132812 232.609375 241.691406 232.375 241.230469 232.1875 C 240.765625 231.996094 240.289062 231.855469 239.796875 231.757812 C 239.304688 231.660156 238.8125 231.613281 238.308594 231.613281 C 237.808594 231.613281 237.3125 231.660156 236.820312 231.757812 C 236.332031 231.855469 235.855469 231.996094 235.390625 232.1875 C 234.925781 232.375 234.484375 232.609375 234.066406 232.882812 C 233.648438 233.160156 233.261719 233.472656 232.90625 233.824219 C 232.550781 234.175781 232.230469 234.558594 231.945312 234.972656 C 231.664062 235.382812 231.425781 235.820312 231.226562 236.28125 C 231.03125 236.742188 230.878906 237.214844 230.773438 237.707031 C 230.667969 238.195312 230.613281 238.691406 230.605469 239.191406 L 230.605469 510.714844 C 230.601562 511.566406 230.644531 512.417969 230.726562 513.269531 C 230.8125 514.117188 230.933594 514.960938 231.101562 515.796875 C 231.265625 516.636719 231.472656 517.460938 231.722656 518.277344 C 231.96875 519.097656 232.253906 519.898438 232.582031 520.6875 C 232.910156 521.476562 233.273438 522.246094 233.675781 523 C 234.078125 523.753906 234.515625 524.484375 234.988281 525.195312 C 235.460938 525.902344 235.96875 526.589844 236.511719 527.246094 C 237.054688 527.90625 237.625 528.539062 238.230469 529.144531 C 238.832031 529.746094 239.464844 530.320312 240.125 530.859375 C 240.78125 531.402344 241.46875 531.910156 242.175781 532.382812 C 242.886719 532.859375 243.617188 533.296875 244.371094 533.699219 C 245.125 534.101562 245.894531 534.464844 246.683594 534.789062 C 247.472656 535.117188 248.273438 535.402344 249.089844 535.652344 C 249.90625 535.898438 250.734375 536.105469 251.570312 536.273438 C 252.410156 536.4375 253.25 536.5625 254.101562 536.644531 C 254.949219 536.730469 255.800781 536.769531 256.65625 536.769531 L 529.4375 536.769531 C 529.949219 536.777344 530.457031 536.734375 530.957031 536.644531 C 531.460938 536.550781 531.949219 536.410156 532.425781 536.21875 C 532.898438 536.03125 533.351562 535.796875 533.78125 535.515625 C 534.207031 535.234375 534.605469 534.917969 534.96875 534.558594 C 535.335938 534.199219 535.660156 533.808594 535.945312 533.382812 C 536.234375 532.960938 536.476562 532.511719 536.671875 532.042969 C 536.871094 531.570312 537.019531 531.082031 537.121094 530.582031 C 537.222656 530.078125 537.273438 529.574219 537.273438 529.0625 C 537.273438 528.550781 537.222656 528.042969 537.121094 527.542969 C 537.019531 527.039062 536.871094 526.554688 536.671875 526.082031 C 536.476562 525.609375 536.234375 525.164062 535.945312 524.738281 C 535.660156 524.316406 535.335938 523.925781 534.96875 523.566406 C 534.605469 523.207031 534.207031 522.886719 533.78125 522.609375 C 533.351562 522.328125 532.898438 522.09375 532.425781 521.902344 C 531.949219 521.714844 531.460938 521.570312 530.957031 521.480469 C 530.457031 521.386719 529.949219 521.34375 529.4375 521.355469 Z M 529.4375 521.355469 " fill-opacity="1" fill-rule="nonzero"/></g><path fill="#000000" d="M 308.128906 489.335938 C 308.636719 489.335938 309.136719 489.289062 309.632812 489.1875 C 310.128906 489.089844 310.609375 488.945312 311.078125 488.75 C 311.546875 488.558594 311.992188 488.320312 312.410156 488.039062 C 312.832031 487.757812 313.222656 487.4375 313.578125 487.082031 C 313.9375 486.722656 314.257812 486.332031 314.539062 485.914062 C 314.820312 485.492188 315.058594 485.046875 315.25 484.582031 C 315.445312 484.113281 315.589844 483.628906 315.691406 483.132812 C 315.789062 482.636719 315.839844 482.136719 315.839844 481.628906 L 315.839844 398.621094 C 315.847656 398.109375 315.804688 397.601562 315.710938 397.097656 C 315.621094 396.597656 315.480469 396.105469 315.289062 395.632812 C 315.101562 395.15625 314.863281 394.703125 314.585938 394.277344 C 314.304688 393.847656 313.984375 393.453125 313.628906 393.085938 C 313.269531 392.722656 312.878906 392.394531 312.453125 392.109375 C 312.03125 391.824219 311.582031 391.582031 311.113281 391.382812 C 310.640625 391.183594 310.152344 391.035156 309.652344 390.933594 C 309.148438 390.832031 308.644531 390.785156 308.132812 390.785156 C 307.621094 390.785156 307.113281 390.832031 306.613281 390.933594 C 306.109375 391.035156 305.625 391.183594 305.152344 391.382812 C 304.679688 391.582031 304.234375 391.824219 303.808594 392.109375 C 303.386719 392.394531 302.996094 392.722656 302.636719 393.085938 C 302.277344 393.453125 301.960938 393.847656 301.679688 394.277344 C 301.398438 394.703125 301.164062 395.15625 300.976562 395.632812 C 300.785156 396.105469 300.644531 396.597656 300.550781 397.097656 C 300.460938 397.601562 300.417969 398.109375 300.425781 398.621094 L 300.425781 481.628906 C 300.425781 482.136719 300.476562 482.636719 300.574219 483.132812 C 300.671875 483.628906 300.820312 484.113281 301.011719 484.578125 C 301.207031 485.046875 301.441406 485.492188 301.722656 485.910156 C 302.003906 486.332031 302.324219 486.722656 302.683594 487.078125 C 303.039062 487.4375 303.429688 487.757812 303.847656 488.039062 C 304.269531 488.320312 304.714844 488.554688 305.179688 488.75 C 305.648438 488.945312 306.128906 489.089844 306.625 489.1875 C 307.121094 489.289062 307.625 489.335938 308.128906 489.335938 Z M 308.128906 489.335938 " fill-opacity="1" fill-rule="nonzero"/><path fill="#000000" d="M 385.851562 489.335938 C 386.355469 489.335938 386.859375 489.289062 387.355469 489.1875 C 387.851562 489.089844 388.332031 488.945312 388.800781 488.75 C 389.265625 488.558594 389.710938 488.320312 390.132812 488.039062 C 390.554688 487.757812 390.941406 487.4375 391.300781 487.078125 C 391.65625 486.722656 391.976562 486.332031 392.257812 485.914062 C 392.539062 485.492188 392.777344 485.046875 392.972656 484.578125 C 393.164062 484.113281 393.3125 483.628906 393.410156 483.132812 C 393.507812 482.636719 393.558594 482.136719 393.558594 481.628906 L 393.558594 327.46875 C 393.566406 326.957031 393.523438 326.453125 393.433594 325.949219 C 393.339844 325.445312 393.199219 324.957031 393.007812 324.480469 C 392.820312 324.007812 392.585938 323.554688 392.304688 323.125 C 392.023438 322.699219 391.707031 322.300781 391.347656 321.9375 C 390.988281 321.570312 390.597656 321.246094 390.175781 320.957031 C 389.75 320.671875 389.304688 320.429688 388.832031 320.230469 C 388.359375 320.035156 387.871094 319.882812 387.371094 319.785156 C 386.871094 319.683594 386.363281 319.632812 385.851562 319.632812 C 385.339844 319.632812 384.832031 319.683594 384.332031 319.785156 C 383.832031 319.882812 383.34375 320.035156 382.871094 320.230469 C 382.402344 320.429688 381.953125 320.671875 381.53125 320.957031 C 381.105469 321.246094 380.714844 321.570312 380.355469 321.9375 C 379.996094 322.300781 379.679688 322.699219 379.398438 323.125 C 379.121094 323.554688 378.882812 324.007812 378.695312 324.480469 C 378.503906 324.957031 378.363281 325.445312 378.269531 325.949219 C 378.179688 326.453125 378.136719 326.957031 378.144531 327.46875 L 378.144531 481.628906 C 378.144531 482.136719 378.195312 482.636719 378.292969 483.132812 C 378.390625 483.628906 378.539062 484.113281 378.730469 484.578125 C 378.925781 485.046875 379.164062 485.492188 379.445312 485.910156 C 379.726562 486.332031 380.042969 486.722656 380.402344 487.078125 C 380.761719 487.4375 381.148438 487.757812 381.570312 488.039062 C 381.992188 488.320312 382.433594 488.558594 382.902344 488.75 C 383.371094 488.945312 383.851562 489.089844 384.347656 489.1875 C 384.84375 489.289062 385.34375 489.335938 385.851562 489.335938 Z M 385.851562 489.335938 " fill-opacity="1" fill-rule="nonzero"/><path fill="#000000" d="M 464.890625 489.335938 C 465.394531 489.335938 465.894531 489.289062 466.390625 489.1875 C 466.890625 489.089844 467.371094 488.945312 467.839844 488.75 C 468.304688 488.558594 468.75 488.320312 469.171875 488.039062 C 469.589844 487.757812 469.980469 487.4375 470.339844 487.078125 C 470.695312 486.722656 471.015625 486.332031 471.296875 485.914062 C 471.578125 485.492188 471.816406 485.046875 472.007812 484.578125 C 472.203125 484.113281 472.347656 483.628906 472.449219 483.132812 C 472.546875 482.636719 472.597656 482.136719 472.597656 481.628906 L 472.597656 367 C 472.605469 366.488281 472.5625 365.980469 472.46875 365.476562 C 472.378906 364.972656 472.238281 364.484375 472.046875 364.011719 C 471.859375 363.535156 471.621094 363.082031 471.34375 362.65625 C 471.0625 362.226562 470.746094 361.832031 470.386719 361.464844 C 470.027344 361.101562 469.636719 360.773438 469.210938 360.488281 C 468.789062 360.203125 468.339844 359.957031 467.871094 359.761719 C 467.398438 359.5625 466.910156 359.414062 466.410156 359.3125 C 465.90625 359.210938 465.402344 359.160156 464.890625 359.160156 C 464.378906 359.160156 463.871094 359.210938 463.371094 359.3125 C 462.871094 359.414062 462.382812 359.5625 461.910156 359.761719 C 461.4375 359.957031 460.992188 360.203125 460.566406 360.488281 C 460.144531 360.773438 459.753906 361.101562 459.394531 361.464844 C 459.035156 361.832031 458.71875 362.226562 458.4375 362.65625 C 458.15625 363.082031 457.921875 363.535156 457.734375 364.011719 C 457.542969 364.484375 457.402344 364.972656 457.308594 365.476562 C 457.21875 365.980469 457.175781 366.488281 457.183594 367 L 457.183594 481.628906 C 457.183594 482.136719 457.234375 482.636719 457.332031 483.132812 C 457.429688 483.628906 457.578125 484.113281 457.769531 484.578125 C 457.964844 485.046875 458.203125 485.492188 458.480469 485.910156 C 458.761719 486.332031 459.082031 486.722656 459.441406 487.078125 C 459.796875 487.4375 460.1875 487.757812 460.609375 488.039062 C 461.027344 488.320312 461.472656 488.558594 461.941406 488.75 C 462.40625 488.945312 462.890625 489.089844 463.386719 489.1875 C 463.882812 489.289062 464.382812 489.335938 464.890625 489.335938 Z M 464.890625 489.335938 " fill-opacity="1" fill-rule="nonzero"/></svg>