<svg xmlns="http://www.w3.org/2000/svg" xmlns:xlink="http://www.w3.org/1999/xlink" width="1024" zoomAndPan="magnify" viewBox="0 0 768 767.999994" height="1024" preserveAspectRatio="xMidYMid meet" version="1.0"><defs><clipPath id="id1"><path d="M 77 177.671875 L 691 177.671875 L 691 590.171875 L 77 590.171875 Z M 77 177.671875 " clip-rule="nonzero"/></clipPath></defs><g clip-path="url(#id1)"><path fill="#098e7e" d="M 666.414062 307.378906 C 666.414062 308.984375 666.414062 310.816406 665.953125 312.421875 L 628.136719 463.671875 C 626.300781 471.234375 619.425781 476.734375 611.632812 476.734375 L 384.726562 477.878906 L 157.589844 477.878906 C 149.796875 477.878906 142.921875 472.609375 140.859375 464.816406 L 103.042969 313.109375 C 102.582031 311.277344 102.582031 309.441406 102.582031 307.839844 C 87.914062 303.253906 77.371094 289.503906 77.371094 273.464844 C 77.371094 253.527344 93.644531 237.253906 113.585938 237.253906 C 133.523438 237.253906 149.796875 253.527344 149.796875 273.464844 C 149.796875 284.691406 144.757812 294.777344 136.503906 301.421875 L 183.949219 349.089844 C 195.636719 361.003906 212.371094 367.878906 229.332031 367.878906 C 249.5 367.878906 268.523438 358.253906 280.671875 342.441406 L 358.371094 239.316406 C 351.722656 232.902344 347.828125 223.734375 347.828125 213.878906 C 347.828125 193.941406 364.097656 177.671875 384.039062 177.671875 C 403.980469 177.671875 420.253906 193.941406 420.253906 213.878906 C 420.253906 223.503906 416.355469 232.214844 410.167969 238.859375 L 487.410156 342.214844 C 499.554688 358.253906 518.578125 367.878906 538.75 367.878906 C 555.9375 367.878906 571.984375 361.234375 584.128906 349.089844 L 631.804688 301.421875 C 623.550781 294.777344 618.28125 284.691406 618.28125 273.234375 C 618.28125 253.296875 634.554688 237.027344 654.496094 237.027344 C 674.433594 237.027344 690.707031 253.296875 690.707031 273.234375 C 690.476562 289.046875 680.394531 302.339844 666.414062 307.378906 Z M 624.46875 531.734375 C 624.46875 522.339844 616.675781 514.546875 607.277344 514.546875 L 162.632812 514.546875 C 153.238281 514.546875 145.445312 522.339844 145.445312 531.734375 L 145.445312 572.984375 C 145.445312 582.378906 153.238281 590.171875 162.632812 590.171875 L 607.277344 590.171875 C 616.675781 590.171875 624.46875 582.378906 624.46875 572.984375 Z M 624.46875 531.734375 " fill-opacity="1" fill-rule="nonzero"/></g></svg>