<svg xmlns="http://www.w3.org/2000/svg" xmlns:xlink="http://www.w3.org/1999/xlink" width="1024" zoomAndPan="magnify" viewBox="0 0 768 767.999994" height="1024" preserveAspectRatio="xMidYMid meet" version="1.0"><defs><clipPath id="id1"><path d="M 178 130.253906 L 591 130.253906 L 591 634 L 178 634 Z M 178 130.253906 " clip-rule="nonzero"/></clipPath></defs><g clip-path="url(#id1)"><path fill="#100f0d" d="M 322.917969 229.203125 C 303.183594 192.394531 272.957031 162.285156 236.125 142.675781 C 216.972656 132.488281 193.175781 139.769531 182.949219 158.933594 C 180.179688 164.207031 178.617188 170.058594 178.394531 176 C 176.921875 217.765625 187.90625 258.996094 209.871094 294.46875 C 218.488281 308.449219 231.839844 318.855469 247.507812 323.859375 C 258.179688 327.253906 269.386719 328.953125 280.59375 328.863281 C 288.050781 328.820312 294.878906 332.929688 298.273438 339.585938 L 360.289062 460.777344 L 277.066406 591.707031 C 269.074219 604.304688 272.78125 621.011719 285.324219 629.007812 C 297.917969 637.050781 314.613281 633.34375 322.652344 620.746094 C 323.054688 620.074219 323.453125 619.40625 323.8125 618.734375 L 383.015625 505.046875 L 441.191406 618.554688 C 447.84375 631.867188 464.050781 637.226562 477.355469 630.527344 C 490.660156 623.871094 496.015625 607.65625 489.320312 594.34375 C 488.875 593.40625 488.339844 592.511719 487.800781 591.664062 L 404.847656 463.191406 L 471.015625 336.234375 L 506.597656 326.628906 C 517.089844 323.769531 525.617188 316.265625 529.769531 306.261719 L 590.222656 160.273438 C 591.027344 158.53125 590.269531 156.433594 588.527344 155.628906 C 586.785156 154.871094 584.730469 155.628906 583.882812 157.328125 L 525.527344 271.371094 C 524.054688 274.632812 520.214844 276.019531 516.957031 274.542969 C 513.742188 273.070312 512.3125 269.273438 513.785156 266.011719 C 513.875 265.832031 513.964844 265.652344 514.097656 265.476562 L 574.550781 150.625 C 575.265625 149.375 574.820312 147.722656 573.523438 147.007812 C 572.273438 146.292969 570.625 146.738281 569.910156 148.035156 C 569.863281 148.167969 569.773438 148.257812 569.730469 148.390625 L 506.464844 260.785156 C 504.769531 263.867188 500.929688 264.984375 497.890625 263.285156 C 494.8125 261.589844 493.742188 257.746094 495.4375 254.664062 C 495.4375 254.621094 495.480469 254.53125 495.527344 254.484375 L 561.203125 143.476562 C 562.050781 142.273438 561.78125 140.621094 560.621094 139.769531 C 559.417969 138.878906 557.765625 139.144531 556.917969 140.351562 C 556.917969 140.351562 556.871094 140.394531 556.871094 140.441406 L 487.710938 250.199219 C 485.882812 253.234375 481.910156 254.21875 478.871094 252.386719 C 475.835938 250.554688 474.855469 246.578125 476.683594 243.542969 C 476.730469 243.453125 476.820312 243.363281 476.863281 243.273438 L 546.378906 135.660156 C 547.449219 134.054688 547.003906 131.863281 545.351562 130.835938 C 543.835938 129.808594 541.78125 130.167969 540.664062 131.640625 L 444.539062 256.988281 C 437.929688 265.609375 435.699219 276.820312 438.511719 287.273438 L 447.976562 322.921875 L 381.628906 427.273438 L 317.738281 328.328125 C 313.722656 322.074219 313.542969 314.121094 317.292969 307.734375 C 322.964844 297.996094 327.070312 287.453125 329.480469 276.464844 C 333.007812 260.425781 330.6875 243.632812 322.917969 229.203125 " fill-opacity="1" fill-rule="nonzero"/></g></svg>