<svg xmlns="http://www.w3.org/2000/svg" xmlns:xlink="http://www.w3.org/1999/xlink" width="1024" zoomAndPan="magnify" viewBox="0 0 768 767.999994" height="1024" preserveAspectRatio="xMidYMid meet" version="1.0"><defs><clipPath id="id1"><path d="M 85.25 98.832031 L 374 98.832031 L 374 669.148438 L 85.25 669.148438 Z M 85.25 98.832031 " clip-rule="nonzero"/></clipPath></defs><g clip-path="url(#id1)"><path fill="#040606" d="M 133.117188 669.148438 L 291.046875 669.148438 C 271.410156 654.609375 255.648438 632.273438 246.203125 605.320312 C 220.835938 599.855469 201.519531 574.175781 201.519531 543.292969 C 201.519531 511.035156 222.640625 484.402344 249.757812 480.632812 C 268.066406 437.285156 303.515625 407.785156 344.21875 407.785156 L 356.582031 253.707031 L 373.9375 253.707031 L 373.9375 218.476562 L 235.960938 218.476562 C 235.589844 165.3125 272.683594 121.59375 327.503906 121.328125 C 342.042969 121.277344 342.042969 98.726562 327.503906 98.777344 C 260.691406 99.152344 212.824219 153.003906 213.460938 218.476562 L 85.25 218.476562 L 85.25 253.707031 L 102.550781 253.707031 L 133.117188 669.148438 " fill-opacity="1" fill-rule="nonzero"/></g><path fill="#040606" d="M 323.683594 663.628906 C 330.316406 665.804688 337.214844 667.132812 344.324219 667.132812 L 560.679688 667.132812 C 593.210938 667.132812 621.546875 642.617188 636.621094 606.484375 L 268.386719 606.484375 C 280.113281 634.710938 300.015625 655.777344 323.683594 663.628906 " fill-opacity="1" fill-rule="nonzero"/><path fill="#040606" d="M 338.433594 480.101562 L 632.640625 480.101562 C 616.878906 448.800781 590.503906 428.214844 560.679688 428.214844 L 344.324219 428.214844 C 343.742188 428.214844 343.15625 428.320312 342.625 428.320312 C 313.492188 429.113281 287.808594 449.4375 272.367188 480.101562 L 338.433594 480.101562 " fill-opacity="1" fill-rule="nonzero"/><path fill="#040606" d="M 278.257812 526.742188 C 290.992188 521.542969 305.265625 521.328125 321.558594 528.015625 C 325.644531 529.710938 329.785156 532.417969 334.03125 535.070312 C 344.429688 541.597656 355.574219 548.015625 368.417969 539.421875 C 374.945312 535.125 382.691406 529.179688 390.757812 527.855469 C 406.625 525.253906 421.058594 525.46875 435.015625 534.699219 C 459.164062 550.722656 480.175781 555.074219 505.332031 538.148438 C 516.050781 530.984375 529.050781 521.753906 542.796875 522.441406 C 559.246094 523.292969 573.734375 529.5 587.851562 537.777344 C 605.203125 547.859375 614.96875 547.699219 629.03125 537.191406 C 631.152344 535.601562 633.382812 533.796875 635.769531 531.726562 C 639.433594 528.492188 643.785156 528.917969 647.019531 530.984375 C 647.710938 531.410156 648.402344 531.78125 648.929688 532.3125 C 651.796875 535.175781 652.753906 539.421875 650.097656 543.082031 C 649.675781 543.613281 649.410156 544.195312 648.773438 544.726562 C 648.507812 544.992188 648.242188 545.203125 647.921875 545.46875 C 641.34375 551.148438 635.082031 555.710938 628.871094 558.945312 C 614.96875 566.269531 601.222656 566.851562 583.550781 556.613281 C 561.792969 543.878906 542.585938 535.28125 519.554688 550.722656 C 507.507812 558.839844 494.292969 567.648438 479.273438 568.65625 C 460.59375 569.875 446.957031 564.730469 431.515625 554.488281 C 403.707031 536.027344 387.363281 552.953125 361.890625 562.980469 C 349.367188 567.859375 340.929688 561.546875 332.386719 555.125 C 328.296875 552.050781 324.160156 548.917969 319.542969 547.007812 C 300.597656 539.15625 287.382812 540.695312 275.285156 549.925781 C 270.242188 553.695312 265.414062 558.679688 260.480469 565.046875 C 259.789062 565.949219 258.992188 566.480469 258.25 566.957031 C 257.773438 567.277344 257.347656 567.542969 256.871094 567.699219 C 253.472656 568.972656 249.917969 567.277344 247.636719 564.199219 C 245.355469 561.121094 244.613281 556.878906 246.945312 553.003906 C 247.160156 552.6875 247.210938 552.316406 247.476562 551.996094 C 249.863281 548.867188 252.359375 545.949219 254.90625 543.292969 C 255.648438 542.5 256.445312 541.863281 257.242188 541.121094 C 263.714844 534.753906 270.71875 529.871094 278.257812 526.742188 Z M 264.085938 500.582031 L 256.339844 500.582031 C 255.332031 500.582031 254.375 500.847656 253.367188 500.953125 C 249.28125 501.378906 245.355469 502.652344 241.746094 504.773438 C 230.125 511.566406 222.003906 526.210938 222.003906 543.292969 C 222.003906 559.265625 229.167969 573.058594 239.625 580.382812 C 243.074219 582.824219 246.894531 584.519531 250.980469 585.316406 C 252.730469 585.6875 254.480469 586.007812 256.339844 586.007812 L 648.664062 586.007812 C 650.46875 586.007812 652.273438 585.6875 654.027344 585.316406 C 658.113281 584.519531 661.933594 582.824219 665.382812 580.382812 C 675.835938 573.058594 683 559.265625 683 543.292969 C 683 526.210938 674.882812 511.566406 663.207031 504.722656 C 659.652344 502.652344 655.671875 501.378906 651.585938 500.953125 C 650.628906 500.847656 649.675781 500.582031 648.664062 500.582031 L 264.085938 500.582031 " fill-opacity="1" fill-rule="nonzero"/></svg>