<svg xmlns="http://www.w3.org/2000/svg" xmlns:xlink="http://www.w3.org/1999/xlink" width="1024" zoomAndPan="magnify" viewBox="0 0 768 767.999994" height="1024" preserveAspectRatio="xMidYMid meet" version="1.0"><defs><clipPath id="id1"><path d="M 82.972656 82.972656 L 685.222656 82.972656 L 685.222656 685.222656 L 82.972656 685.222656 Z M 82.972656 82.972656 " clip-rule="nonzero"/></clipPath></defs><g clip-path="url(#id1)"><path fill="#000000" d="M 384.097656 82.972656 C 218.058594 82.972656 82.972656 218.058594 82.972656 384.097656 C 82.972656 550.136719 218.058594 685.222656 384.097656 685.222656 C 550.136719 685.222656 685.222656 550.136719 685.222656 384.097656 C 685.222656 218.058594 550.136719 82.972656 384.097656 82.972656 Z M 384.097656 161.527344 C 434.632812 161.527344 475.746094 202.636719 475.746094 253.171875 C 475.746094 303.710938 434.632812 344.820312 384.097656 344.820312 C 333.5625 344.820312 292.449219 303.710938 292.449219 253.171875 C 292.449219 202.636719 333.5625 161.527344 384.097656 161.527344 Z M 541.207031 554.296875 L 226.988281 554.296875 C 219.761719 554.296875 213.894531 548.433594 213.894531 541.207031 C 213.894531 447.359375 290.25 371.003906 384.097656 371.003906 C 477.945312 371.003906 554.296875 447.359375 554.296875 541.207031 C 554.296875 548.433594 548.433594 554.296875 541.207031 554.296875 Z M 541.207031 554.296875 " fill-opacity="1" fill-rule="nonzero"/></g></svg>